<?xml version="1.0" standalone="no"?>
<!DOCTYPE svg PUBLIC "-//W3C//DTD SVG 20010904//EN"
 "http://www.w3.org/TR/2001/REC-SVG-20010904/DTD/svg10.dtd">
<svg version="1.0" xmlns="http://www.w3.org/2000/svg"
 width="260.000000pt" height="260.000000pt" viewBox="0 0 260.000000 260.000000"
 preserveAspectRatio="xMidYMid meet">
<metadata>
Created by potrace 1.11, written by Peter Selinger 2001-2013
</metadata>
<g transform="translate(0.000000,260.000000) scale(0.100000,-0.100000)"
fill="#000000" stroke="none">
<path d="M1145 2569 c-246 -19 -519 -148 -717 -337 -190 -182 -308 -383 -375
-642 -22 -85 -25 -115 -25 -290 0 -215 13 -291 81 -465 147 -380 487 -675 901
-781 94 -24 122 -27 265 -25 201 1 292 13 406 51 241 80 457 223 594 390 114
139 225 348 267 505 46 168 42 501 -7 670 -33 112 -119 295 -180 382 -184 263
-480 462 -785 527 -86 18 -294 26 -425 15z m43 -126 l3 -61 -33 -11 c-18 -5
-63 -15 -101 -22 -77 -13 -89 -8 -107 47 -15 43 -8 61 27 75 41 16 154 38 183
36 23 -2 25 -6 28 -64z m322 57 c113 -21 130 -29 130 -56 0 -28 -22 -75 -43
-92 -17 -15 -154 10 -175 32 -20 19 -27 93 -12 111 15 18 29 18 100 5z m441
-171 c133 -85 139 -109 48 -177 -13 -9 -30 -2 -95 38 -43 28 -82 60 -86 71 -8
22 14 88 35 101 21 13 32 9 98 -33z m-1201 -1 c37 -62 29 -82 -56 -138 -60
-39 -80 -48 -94 -40 -27 14 -62 67 -58 87 3 19 150 123 174 123 8 0 23 -15 34
-32z m677 -43 c233 -38 406 -122 564 -272 100 -96 156 -173 214 -295 107 -226
123 -495 44 -731 -45 -136 -119 -254 -233 -375 -126 -133 -273 -219 -461 -269
-86 -22 -120 -26 -245 -26 -126 -1 -158 3 -245 26 -188 51 -335 136 -462 270
-166 175 -252 355 -282 592 -27 206 48 480 183 669 53 75 188 204 259 250 126
80 269 135 421 160 108 18 135 19 243 1z m-987 -275 c21 -31 19 -38 -43 -127
-53 -76 -62 -81 -116 -62 -67 24 -61 59 29 182 l51 68 30 -18 c17 -10 39 -29
49 -43z m1838 13 c40 -53 82 -126 82 -147 0 -20 -81 -62 -103 -53 -19 7 -107
136 -107 156 0 21 60 81 81 81 10 0 31 -17 47 -37z m190 -390 c35 -91 44 -216
16 -227 -22 -8 -77 -7 -91 2 -14 9 -41 108 -45 166 -3 35 1 42 31 63 46 31 76
30 89 -4z m-2251 -8 l36 -15 -6 -69 c-3 -37 -12 -85 -21 -105 -14 -35 -17 -36
-65 -36 -70 0 -78 16 -56 123 25 124 35 134 112 102z m2281 -440 c17 -16 -8
-188 -32 -220 -11 -15 -17 -16 -48 -6 -58 19 -72 42 -65 104 9 75 26 117 51
128 21 9 83 5 94 -6z m-2279 -8 c11 -14 41 -143 41 -178 0 -26 -57 -60 -95
-57 -25 3 -31 9 -42 47 -16 56 -28 165 -20 185 8 20 99 22 116 3z m2115 -399
c14 -6 28 -19 31 -29 11 -35 -100 -209 -133 -209 -23 0 -82 57 -82 79 0 21 52
105 88 144 28 29 56 34 96 15z m-1931 -68 c26 -35 47 -74 47 -87 0 -27 -50
-83 -73 -83 -20 0 -87 77 -118 134 -23 44 -23 46 -6 63 19 19 75 43 92 39 6
-1 31 -31 58 -66z m299 -301 c42 -28 80 -60 84 -71 3 -11 -2 -38 -11 -59 -23
-50 -47 -51 -123 -3 -69 44 -112 83 -112 102 0 14 65 82 78 82 3 0 41 -23 84
-51z m1327 17 c47 -49 39 -73 -46 -129 -86 -56 -98 -60 -116 -39 -22 24 -37
69 -30 88 7 18 132 114 149 114 5 0 25 -15 43 -34z m-413 -164 c16 -10 44 -68
44 -90 0 -30 -17 -38 -129 -62 -101 -22 -105 -22 -118 -4 -19 25 -16 78 5 104
13 16 42 28 98 40 97 22 87 21 100 12z m-512 -16 c37 -7 72 -20 77 -27 11 -18
12 -116 0 -123 -8 -5 -148 17 -193 30 -50 15 -17 134 37 133 6 0 41 -6 79 -13z"/>
<path d="M1270 2225 c-8 -2 -54 -9 -102 -15 -125 -17 -126 -19 -84 -111 162
-357 203 -856 105 -1279 -24 -105 -51 -190 -95 -297 -19 -45 -34 -89 -34 -97
0 -9 17 -20 43 -28 56 -17 356 -16 416 1 39 11 43 15 38 39 -3 15 -23 70 -44
122 -44 105 -96 281 -113 376 -20 118 -29 355 -20 510 16 239 47 380 131 592
27 68 49 129 49 136 0 14 -49 31 -115 40 -56 8 -157 14 -175 11z"/>
<path d="M703 1998 c-28 -24 -79 -74 -112 -113 -58 -66 -118 -161 -108 -171 2
-2 37 0 78 6 196 28 384 -50 495 -206 60 -84 81 -169 67 -265 -15 -91 -44
-148 -116 -225 -107 -115 -247 -163 -434 -151 -66 5 -83 3 -83 -7 0 -47 202
-279 254 -292 44 -11 81 14 182 119 124 128 162 190 208 328 32 94 39 131 43
223 13 257 -70 485 -238 657 -64 65 -158 139 -179 139 -3 0 -28 -19 -57 -42z"/>
<path d="M1820 2018 c-147 -89 -282 -271 -346 -468 -26 -79 -28 -97 -28 -250
-1 -184 12 -248 79 -380 64 -127 204 -288 292 -337 l40 -23 46 31 c64 42 227
241 227 276 0 9 -26 10 -102 6 -169 -9 -308 39 -412 143 -251 251 -106 624
273 701 62 13 92 14 161 6 47 -6 87 -9 89 -7 19 18 -199 278 -259 309 -24 12
-30 12 -60 -7z"/>
<path d="M472 1619 c-65 -20 -98 -152 -89 -363 6 -148 25 -229 63 -263 21 -19
36 -23 98 -23 40 0 95 7 124 15 64 19 147 93 187 167 27 48 29 62 29 148 0 79
-4 102 -23 138 -33 65 -96 128 -155 157 -58 28 -179 41 -234 24z"/>
<path d="M1981 1619 c-83 -16 -179 -96 -226 -189 -26 -50 -31 -163 -11 -233
20 -70 103 -164 178 -201 44 -22 65 -26 140 -26 80 0 91 2 113 24 38 38 57
117 62 262 9 208 -28 351 -93 365 -41 9 -111 8 -163 -2z"/>
</g>
</svg>
